<mxfile host="app.diagrams.net" modified="2022-06-25T23:41:32.809Z" agent="5.0 (Windows NT 10.0; Win64; x64) AppleWebKit/537.36 (KHTML, like Gecko) Chrome/103.0.5060.53 Safari/537.36" etag="Vkm6Khqz8LY7Zu2KvyQC" version="20.0.3" type="github">
  <diagram id="-VVeqpVQXJ7ovME0JESK" name="Page-1">
    <mxGraphModel dx="1422" dy="766" grid="1" gridSize="1000" guides="1" tooltips="1" connect="1" arrows="1" fold="1" page="1" pageScale="1" pageWidth="850" pageHeight="1100" background="#1B212C" math="0" shadow="0">
      <root>
        <mxCell id="0" />
        <mxCell id="1" parent="0" />
        <mxCell id="Y1LQo7NS9cqCmRV4xeTc-9" style="edgeStyle=orthogonalEdgeStyle;rounded=0;orthogonalLoop=1;jettySize=auto;html=1;entryX=0.5;entryY=0;entryDx=0;entryDy=0;strokeColor=#FFFFFF;fontColor=#FFFFFF;" edge="1" parent="1" source="Y1LQo7NS9cqCmRV4xeTc-1" target="Y1LQo7NS9cqCmRV4xeTc-5">
          <mxGeometry relative="1" as="geometry" />
        </mxCell>
        <mxCell id="Y1LQo7NS9cqCmRV4xeTc-10" style="edgeStyle=orthogonalEdgeStyle;rounded=0;orthogonalLoop=1;jettySize=auto;html=1;exitX=0.5;exitY=1;exitDx=0;exitDy=0;strokeColor=#FFFFFF;fontColor=#FFFFFF;" edge="1" parent="1" source="Y1LQo7NS9cqCmRV4xeTc-1" target="Y1LQo7NS9cqCmRV4xeTc-2">
          <mxGeometry relative="1" as="geometry" />
        </mxCell>
        <mxCell id="Y1LQo7NS9cqCmRV4xeTc-1" value="index" style="whiteSpace=wrap;html=1;aspect=fixed;strokeColor=#FFFFFF;fontColor=#FFFFFF;fillColor=#1B212C;" vertex="1" parent="1">
          <mxGeometry x="385" y="70" width="80" height="80" as="geometry" />
        </mxCell>
        <mxCell id="Y1LQo7NS9cqCmRV4xeTc-11" style="edgeStyle=orthogonalEdgeStyle;rounded=0;orthogonalLoop=1;jettySize=auto;html=1;entryX=0.5;entryY=0;entryDx=0;entryDy=0;strokeColor=#FFFFFF;fontColor=#FFFFFF;" edge="1" parent="1" source="Y1LQo7NS9cqCmRV4xeTc-2" target="Y1LQo7NS9cqCmRV4xeTc-3">
          <mxGeometry relative="1" as="geometry" />
        </mxCell>
        <mxCell id="Y1LQo7NS9cqCmRV4xeTc-15" style="edgeStyle=orthogonalEdgeStyle;rounded=0;orthogonalLoop=1;jettySize=auto;html=1;entryX=0;entryY=0.5;entryDx=0;entryDy=0;strokeColor=#FFFFFF;fontColor=#FFFFFF;" edge="1" parent="1" source="Y1LQo7NS9cqCmRV4xeTc-2" target="Y1LQo7NS9cqCmRV4xeTc-1">
          <mxGeometry relative="1" as="geometry">
            <Array as="points">
              <mxPoint x="310" y="240" />
              <mxPoint x="310" y="110" />
            </Array>
          </mxGeometry>
        </mxCell>
        <mxCell id="Y1LQo7NS9cqCmRV4xeTc-2" value="login" style="rhombus;whiteSpace=wrap;html=1;strokeColor=#FFFFFF;fontColor=#FFFFFF;fillColor=#1B212C;" vertex="1" parent="1">
          <mxGeometry x="210" y="200" width="80" height="80" as="geometry" />
        </mxCell>
        <mxCell id="Y1LQo7NS9cqCmRV4xeTc-12" style="edgeStyle=orthogonalEdgeStyle;rounded=0;orthogonalLoop=1;jettySize=auto;html=1;entryX=0.5;entryY=0;entryDx=0;entryDy=0;strokeColor=#FFFFFF;fontColor=#FFFFFF;" edge="1" parent="1" source="Y1LQo7NS9cqCmRV4xeTc-3" target="Y1LQo7NS9cqCmRV4xeTc-4">
          <mxGeometry relative="1" as="geometry" />
        </mxCell>
        <mxCell id="Y1LQo7NS9cqCmRV4xeTc-13" style="edgeStyle=orthogonalEdgeStyle;rounded=0;orthogonalLoop=1;jettySize=auto;html=1;entryX=0;entryY=0.5;entryDx=0;entryDy=0;strokeColor=#FFFFFF;fontColor=#FFFFFF;" edge="1" parent="1" source="Y1LQo7NS9cqCmRV4xeTc-3" target="Y1LQo7NS9cqCmRV4xeTc-2">
          <mxGeometry relative="1" as="geometry">
            <mxPoint x="200" y="240" as="targetPoint" />
            <Array as="points">
              <mxPoint x="190" y="360" />
              <mxPoint x="190" y="240" />
            </Array>
          </mxGeometry>
        </mxCell>
        <mxCell id="Y1LQo7NS9cqCmRV4xeTc-3" value="register" style="rhombus;whiteSpace=wrap;html=1;strokeColor=#FFFFFF;fontColor=#FFFFFF;fillColor=#1B212C;" vertex="1" parent="1">
          <mxGeometry x="210" y="320" width="80" height="80" as="geometry" />
        </mxCell>
        <mxCell id="Y1LQo7NS9cqCmRV4xeTc-14" style="edgeStyle=orthogonalEdgeStyle;rounded=0;orthogonalLoop=1;jettySize=auto;html=1;entryX=0;entryY=0.5;entryDx=0;entryDy=0;strokeColor=#FFFFFF;fontColor=#FFFFFF;" edge="1" parent="1" source="Y1LQo7NS9cqCmRV4xeTc-4" target="Y1LQo7NS9cqCmRV4xeTc-2">
          <mxGeometry relative="1" as="geometry">
            <mxPoint x="190" y="220" as="targetPoint" />
            <Array as="points">
              <mxPoint x="190" y="480" />
              <mxPoint x="190" y="240" />
            </Array>
          </mxGeometry>
        </mxCell>
        <mxCell id="Y1LQo7NS9cqCmRV4xeTc-4" value="register&lt;br&gt;success" style="rhombus;whiteSpace=wrap;html=1;strokeColor=#FFFFFF;fontColor=#FFFFFF;fillColor=#1B212C;" vertex="1" parent="1">
          <mxGeometry x="210" y="440" width="80" height="80" as="geometry" />
        </mxCell>
        <mxCell id="Y1LQo7NS9cqCmRV4xeTc-5" value="Profile" style="whiteSpace=wrap;html=1;aspect=fixed;strokeColor=#FFFFFF;fontColor=#FFFFFF;fillColor=#1B212C;" vertex="1" parent="1">
          <mxGeometry x="385" y="200" width="80" height="80" as="geometry" />
        </mxCell>
        <mxCell id="Y1LQo7NS9cqCmRV4xeTc-19" style="edgeStyle=orthogonalEdgeStyle;rounded=0;orthogonalLoop=1;jettySize=auto;html=1;entryX=0.5;entryY=1;entryDx=0;entryDy=0;strokeColor=#FFFFFF;fontColor=#FFFFFF;" edge="1" parent="1" source="Y1LQo7NS9cqCmRV4xeTc-6" target="Y1LQo7NS9cqCmRV4xeTc-1">
          <mxGeometry relative="1" as="geometry">
            <mxPoint x="480" y="150" as="targetPoint" />
            <Array as="points">
              <mxPoint x="600" y="170" />
              <mxPoint x="425" y="170" />
            </Array>
          </mxGeometry>
        </mxCell>
        <mxCell id="Y1LQo7NS9cqCmRV4xeTc-20" style="edgeStyle=orthogonalEdgeStyle;rounded=0;orthogonalLoop=1;jettySize=auto;html=1;entryX=0.5;entryY=0;entryDx=0;entryDy=0;strokeColor=#FFFFFF;fontColor=#FFFFFF;" edge="1" parent="1" source="Y1LQo7NS9cqCmRV4xeTc-6" target="Y1LQo7NS9cqCmRV4xeTc-7">
          <mxGeometry relative="1" as="geometry" />
        </mxCell>
        <mxCell id="Y1LQo7NS9cqCmRV4xeTc-6" value="State" style="whiteSpace=wrap;html=1;aspect=fixed;strokeColor=#FFFFFF;fontColor=#FFFFFF;fillColor=#1B212C;" vertex="1" parent="1">
          <mxGeometry x="560" y="200" width="80" height="80" as="geometry" />
        </mxCell>
        <mxCell id="Y1LQo7NS9cqCmRV4xeTc-7" value="State Results" style="whiteSpace=wrap;html=1;aspect=fixed;strokeColor=#FFFFFF;fontColor=#FFFFFF;fillColor=#1B212C;" vertex="1" parent="1">
          <mxGeometry x="560" y="320" width="80" height="80" as="geometry" />
        </mxCell>
        <mxCell id="Y1LQo7NS9cqCmRV4xeTc-21" style="edgeStyle=orthogonalEdgeStyle;rounded=0;orthogonalLoop=1;jettySize=auto;html=1;entryX=0.5;entryY=1;entryDx=0;entryDy=0;strokeColor=#FFFFFF;fontColor=#FFFFFF;" edge="1" parent="1" source="Y1LQo7NS9cqCmRV4xeTc-8" target="Y1LQo7NS9cqCmRV4xeTc-1">
          <mxGeometry relative="1" as="geometry">
            <mxPoint x="760" y="160" as="targetPoint" />
            <Array as="points">
              <mxPoint x="760" y="170" />
              <mxPoint x="425" y="170" />
            </Array>
          </mxGeometry>
        </mxCell>
        <mxCell id="Y1LQo7NS9cqCmRV4xeTc-8" value="404 error" style="ellipse;whiteSpace=wrap;html=1;aspect=fixed;strokeColor=#FFFFFF;fontColor=#FFFFFF;fillColor=#1B212C;" vertex="1" parent="1">
          <mxGeometry x="720" y="440" width="80" height="80" as="geometry" />
        </mxCell>
        <mxCell id="Y1LQo7NS9cqCmRV4xeTc-16" value="(login successful)" style="text;html=1;align=center;verticalAlign=middle;resizable=0;points=[];autosize=1;strokeColor=#1B212C;fillColor=none;fontColor=#FFFFFF;" vertex="1" parent="1">
          <mxGeometry x="260" y="70" width="120" height="30" as="geometry" />
        </mxCell>
        <mxCell id="Y1LQo7NS9cqCmRV4xeTc-17" value="(logged in)" style="text;html=1;align=center;verticalAlign=middle;resizable=0;points=[];autosize=1;strokeColor=#1B212C;fillColor=none;fontColor=#FFFFFF;" vertex="1" parent="1">
          <mxGeometry x="385" y="290" width="80" height="30" as="geometry" />
        </mxCell>
        <mxCell id="Y1LQo7NS9cqCmRV4xeTc-22" value="(logged in)" style="text;html=1;align=center;verticalAlign=middle;resizable=0;points=[];autosize=1;strokeColor=#1B212C;fillColor=none;fontColor=#FFFFFF;" vertex="1" parent="1">
          <mxGeometry x="650" y="240" width="80" height="30" as="geometry" />
        </mxCell>
        <mxCell id="Y1LQo7NS9cqCmRV4xeTc-23" value="(logged in)" style="text;html=1;align=center;verticalAlign=middle;resizable=0;points=[];autosize=1;strokeColor=#1B212C;fillColor=none;fontColor=#FFFFFF;" vertex="1" parent="1">
          <mxGeometry x="560" y="410" width="80" height="30" as="geometry" />
        </mxCell>
      </root>
    </mxGraphModel>
  </diagram>
</mxfile>
